<svg width="30" height="28" viewBox="0 0 30 28" fill="none" xmlns="http://www.w3.org/2000/svg">
<path d="M29.6625 20.7795L24.0375 16.092C23.7581 15.8576 23.3681 15.8108 23.04 15.9626C22.71 16.1183 22.5 16.4483 22.5 16.812V19.6245H20.9306C19.6294 19.6245 18.4406 18.9645 17.7506 17.862L11.6794 8.14951C10.3013 5.94264 7.92375 4.62451 5.31938 4.62451H0V8.37451H5.31938C6.62063 8.37451 7.80937 9.03451 8.49938 10.137L14.5706 19.8495C15.9506 22.0564 18.3281 23.3745 20.9306 23.3745H22.5V26.187C22.5 26.5508 22.71 26.8808 23.04 27.0364C23.1656 27.0945 23.3025 27.1245 23.4375 27.1245C23.6531 27.1245 23.8669 27.0514 24.0375 26.907L29.6625 22.2195C29.8781 22.0414 30 21.777 30 21.4995C30 21.222 29.8781 20.9576 29.6625 20.7795Z" fill="#817F7F"/>
<path d="M29.6627 5.77958L24.0377 1.09208C23.7583 0.859583 23.3683 0.810832 23.0402 0.964582C22.7102 1.11646 22.5002 1.44833 22.5002 1.81208V4.62458H20.9308C18.3264 4.62458 15.9489 5.94271 14.5708 8.14958L14.2314 8.69333L16.4421 12.2315L17.7508 10.1371C18.4408 9.03458 19.6296 8.37458 20.9308 8.37458H22.5002V11.1871C22.5002 11.5508 22.7102 11.8827 23.0402 12.0365C23.1658 12.0946 23.3027 12.1246 23.4377 12.1246C23.6533 12.1246 23.8671 12.0496 24.0377 11.9071L29.6627 7.21958C29.8783 7.04146 30.0002 6.77708 30.0002 6.49958C30.0002 6.22208 29.8783 5.95771 29.6627 5.77958Z" fill="#817F7F"/>
<path d="M9.80812 15.7676L8.50125 17.862C7.81125 18.9645 6.62062 19.6245 5.31937 19.6245H0V23.3745H5.31937C7.92187 23.3745 10.2994 22.0563 11.6794 19.8495L12.0187 19.3057L9.80812 15.7676Z" fill="#817F7F"/>
</svg>
