<svg width="26" height="29" viewBox="0 0 26 29" fill="none" xmlns="http://www.w3.org/2000/svg">
<path d="M13.1329 28.2651C6.07188 28.2651 0.327881 22.5151 0.327881 15.4561C0.327881 8.39614 6.07188 2.64914 13.1329 2.64914C13.6019 2.64914 14.0759 2.67614 14.5469 2.72914V0.659141C14.5469 0.393141 14.7109 0.151141 14.9529 0.0481406C15.2049 -0.0498594 15.4839 0.00514059 15.6759 0.196141L20.2129 4.74314C20.4709 5.00114 20.4709 5.41314 20.2129 5.67514L15.6779 10.2321C15.4849 10.4201 15.2049 10.4781 14.9529 10.3751C14.7109 10.2711 14.5469 10.0311 14.5469 9.76614V7.47014C14.0779 7.38414 13.6059 7.34514 13.1329 7.34514C8.65988 7.34514 5.01988 10.9841 5.01988 15.4561C5.01988 19.9271 8.66088 23.5691 13.1329 23.5691C17.6049 23.5691 21.2439 19.9261 21.2439 15.4561C21.2439 15.0931 21.5389 14.7961 21.9059 14.7961H25.2749C25.6399 14.7961 25.9369 15.0931 25.9369 15.4561C25.9369 22.5151 20.1889 28.2651 13.1329 28.2651Z" fill="#817F7F"/>
</svg>
