<svg width="110" height="142" viewBox="0 0 110 142" fill="none" xmlns="http://www.w3.org/2000/svg">
<path fill-rule="evenodd" clip-rule="evenodd" d="M184.898 176.488C175.786 189.359 160.991 197.59 145.611 201.092C131.092 204.398 115.864 201.286 102.218 195.314C90.0214 189.977 84.1615 176.531 72.979 169.306C56.9776 158.966 25.7325 162.955 22.9728 144.11C20.1413 124.774 55.5219 121.153 63.3033 103.232C70.6167 86.3885 54.2383 64.7102 64.1575 49.2578C74.2528 33.5314 94.7852 25.2268 113.478 25.0684C131.959 24.9118 150.269 34.5933 162.531 48.4242C173.541 60.8426 169.856 79.8638 175.798 95.3579C180.807 108.419 193.002 118.044 194.561 131.943C196.29 147.357 193.857 163.832 184.898 176.488Z" fill="#FFA356"/>
</svg>
