<svg width="98" height="134" viewBox="0 0 98 134" fill="none" xmlns="http://www.w3.org/2000/svg">
<path fill-rule="evenodd" clip-rule="evenodd" d="M-75.2709 -47.8656C-64.7819 -59.0863 -49.4199 -65.0798 -34.1165 -66.4327C-19.6694 -67.71 -5.38392 -62.6999 6.99762 -55.1388C18.0643 -48.3806 21.9475 -34.6333 31.7868 -26.1869C45.866 -14.1007 76.5439 -13.8329 76.7238 4.71688C76.9083 23.7499 42.2881 22.5816 32.4173 38.8507C23.1403 54.1412 36.0892 77.2195 24.4808 90.8243C12.6664 104.67 -8.24223 109.979 -26.3025 107.668C-44.1568 105.384 -60.5506 93.6289 -70.5618 78.6659C-79.5506 65.231 -73.4875 47.3608 -77.18 31.6256C-80.2925 18.3619 -90.7929 7.46568 -90.4658 -6.15269C-90.1031 -21.2548 -85.5842 -36.8329 -75.2709 -47.8656Z" fill="#FFA356"/>
</svg>
