<svg width="1920" height="876" viewBox="0 0 1920 876" fill="none" xmlns="http://www.w3.org/2000/svg">
<path fill-rule="evenodd" clip-rule="evenodd" d="M-257.419 -111.586C-232.321 -145.778 -192.155 -167.228 -150.634 -175.934C-111.436 -184.153 -70.6288 -175.079 -34.2095 -158.388C-1.65773 -143.47 13.4782 -107.042 43.2156 -87.0935C85.7675 -58.5491 169.975 -67.8303 176.524 -17.0245C183.244 35.1049 87.9323 43.2039 66.1777 91.0369C45.7315 135.993 88.7726 195.047 61.3832 236.142C33.5079 277.966 -22.0914 299.348 -72.368 298.909C-122.071 298.475 -170.862 271.593 -203.198 233.832C-232.232 199.928 -221.44 148.947 -236.702 107.006C-249.567 71.6523 -281.917 45.2026 -285.466 7.75352C-289.402 -33.7756 -282.097 -77.9668 -257.419 -111.586Z" fill="#FFA356"/>
<path fill-rule="evenodd" clip-rule="evenodd" d="M1961.58 -109.439C2008.41 -56.2077 2010.74 20.7183 2035.55 87.1332C2064.29 164.047 2140.24 235.564 2120.21 315.155C2100.17 394.83 2008.2 433.91 1937.71 476.056C1879.36 510.942 1804.14 503.003 1746.29 538.711C1678.01 580.856 1653.11 700.476 1572.86 701.258C1493.7 702.029 1466.13 586.408 1400.5 542.078C1344.6 504.315 1275.04 496.913 1217.71 461.348C1142.63 414.765 1034.34 385.794 1011.18 300.526C988.515 217.041 1084.71 146.887 1109.86 64.156C1133.54 -13.6892 1098.44 -114.224 1155.06 -172.624C1212.74 -232.107 1312.01 -216.882 1394 -228.889C1459.51 -238.483 1523.91 -240.291 1590.01 -236.321C1654.1 -232.472 1717 -226.592 1777.77 -205.84C1844.06 -183.201 1915.29 -162.047 1961.58 -109.439Z" fill="#FF7D30"/>
</svg>
