<svg width="240" height="308" viewBox="0 0 240 308" fill="none" xmlns="http://www.w3.org/2000/svg">
<path fill-rule="evenodd" clip-rule="evenodd" d="M-218.82 -204.741C-187.291 -233.113 -143.601 -245.944 -101.177 -246.022C-61.1273 -246.096 -23.019 -228.912 9.2439 -205.162C38.0807 -183.934 45.4906 -145.189 70.5487 -119.609C106.405 -83.006 190.74 -74.9648 186.818 -23.889C182.794 28.5174 87.8273 17.0601 56.7979 59.4681C27.6348 99.3256 57.7642 165.9 22.5884 200.565C-13.2114 235.844 -71.9977 245.47 -121.134 234.814C-169.71 224.279 -212.012 188.035 -235.992 144.486C-257.522 105.384 -236.587 57.6645 -242.999 13.4959C-248.403 -23.7357 -274.697 -56.2126 -270.555 -93.6007C-265.961 -135.062 -249.82 -176.844 -218.82 -204.741Z" fill="#FFA356"/>
</svg>
