<svg width="132" height="216" viewBox="0 0 132 216" fill="none" xmlns="http://www.w3.org/2000/svg">
<path fill-rule="evenodd" clip-rule="evenodd" d="M-171.508 -71.2164C-156.885 -92.4685 -132.865 -106.254 -107.785 -112.317C-84.1077 -118.041 -59.1315 -113.282 -36.6814 -103.811C-16.6154 -95.3462 -6.73777 -73.4816 11.7107 -61.9065C38.1089 -45.3433 89.1288 -52.5484 94.0532 -21.7838C99.1059 9.78239 41.3135 16.475 28.976 45.9578C17.3806 73.6673 44.6425 108.769 28.7545 134.26C12.5845 160.204 -20.819 174.234 -51.3916 174.901C-81.6155 175.559 -111.776 160.122 -132.134 137.767C-150.414 117.694 -144.8 86.5012 -154.857 61.2873C-163.334 40.0336 -183.491 24.5544 -186.344 1.85399C-189.507 -23.3196 -185.887 -50.3203 -171.508 -71.2164Z" fill="#FFA356"/>
</svg>
