<svg width="768" height="568" viewBox="0 0 768 568" fill="none" xmlns="http://www.w3.org/2000/svg">
<path fill-rule="evenodd" clip-rule="evenodd" d="M-117.426 -79.0995C-98.2974 -99.5625 -70.282 -110.493 -42.3735 -112.96C-16.0265 -115.289 10.0256 -106.153 32.6055 -92.3634C52.7876 -80.0387 59.8693 -54.9682 77.813 -39.5646C103.489 -17.5232 159.436 -17.0348 159.764 16.794C160.1 51.5043 96.964 49.3737 78.963 79.0432C62.0446 106.928 85.6594 149.016 64.4892 173.826C42.9435 199.077 4.81294 208.758 -28.1233 204.545C-60.6838 200.38 -90.5809 178.941 -108.838 151.653C-125.231 127.152 -114.174 94.5629 -120.907 65.867C-126.584 41.6781 -145.733 21.807 -145.137 -3.02855C-144.475 -30.5699 -136.234 -58.9794 -117.426 -79.0995Z" fill="#FFA356"/>
<path fill-rule="evenodd" clip-rule="evenodd" d="M914.609 629.16C896.789 654.333 867.854 670.431 837.776 677.28C809.38 683.745 779.598 677.659 752.911 665.979C729.057 655.54 717.597 629.245 695.727 615.114C664.433 594.893 603.326 602.694 597.929 565.838C592.392 528.022 661.586 520.941 676.804 485.892C691.107 452.951 659.076 410.555 678.475 380.334C698.218 349.578 738.374 333.336 774.933 333.027C811.075 332.72 846.884 351.655 870.866 378.704C892.399 402.991 885.191 440.191 896.812 470.493C906.608 496.036 930.458 514.861 933.507 542.044C936.888 572.188 932.13 604.409 914.609 629.16Z" fill="#FFA356"/>
</svg>
