<svg width="215" height="284" viewBox="0 0 215 284" fill="none" xmlns="http://www.w3.org/2000/svg">
<path fill-rule="evenodd" clip-rule="evenodd" d="M361.609 345.16C343.789 370.333 314.854 386.431 284.776 393.28C256.38 399.745 226.598 393.659 199.911 381.979C176.057 371.54 164.597 345.245 142.727 331.114C111.433 310.893 50.3265 318.694 44.9294 281.838C39.3917 244.022 108.586 236.941 123.804 201.892C138.107 168.951 106.076 126.555 125.475 96.3343C145.218 65.5778 185.374 49.3365 221.933 49.0267C258.075 48.7204 293.884 67.6546 317.866 94.704C339.399 118.991 332.191 156.191 343.812 186.493C353.608 212.036 377.458 230.861 380.507 258.044C383.888 288.188 379.13 320.409 361.609 345.16Z" fill="#FFA356"/>
</svg>
