<svg width="198" height="252" viewBox="0 0 198 252" fill="none" xmlns="http://www.w3.org/2000/svg">
<path fill-rule="evenodd" clip-rule="evenodd" d="M-117.426 -79.0995C-98.2974 -99.5625 -70.282 -110.493 -42.3735 -112.96C-16.0265 -115.289 10.0256 -106.153 32.6055 -92.3634C52.7876 -80.0387 59.8693 -54.9682 77.813 -39.5646C103.489 -17.5232 159.436 -17.0348 159.764 16.794C160.1 51.5043 96.964 49.3737 78.963 79.0432C62.0446 106.928 85.6594 149.016 64.4892 173.826C42.9435 199.077 4.81294 208.758 -28.1233 204.545C-60.6838 200.38 -90.5809 178.941 -108.838 151.653C-125.231 127.152 -114.174 94.5629 -120.907 65.867C-126.584 41.6781 -145.733 21.807 -145.137 -3.02855C-144.475 -30.5699 -136.234 -58.9794 -117.426 -79.0995Z" fill="#FFA356"/>
</svg>
