<svg width="44" height="44" viewBox="0 0 44 44" fill="none" xmlns="http://www.w3.org/2000/svg">
<g clip-path="url(#clip0)">
<path d="M1.14546 18.5243C0.688378 18.5243 0.318359 18.8943 0.318359 19.3509V23.4855C0.318359 23.9426 0.688378 24.3126 1.14546 24.3126C1.60207 24.3126 1.97209 23.9426 1.97209 23.4855V19.3509C1.97209 18.8943 1.60207 18.5243 1.14546 18.5243Z" fill="#444444"/>
<path d="M5.28291 15.1384C4.8263 15.1384 4.45581 15.5089 4.45581 15.9655V27.4143C4.45581 27.8714 4.8263 28.2414 5.28291 28.2414C5.73952 28.2414 6.11001 27.8714 6.11001 27.4143V15.9655C6.11001 15.5089 5.73952 15.1384 5.28291 15.1384Z" fill="#444444"/>
<path d="M9.4145 9.42822C8.95789 9.42822 8.5874 9.79824 8.5874 10.2548V33.4089C8.5874 33.8655 8.95789 34.236 9.4145 34.236C9.87111 34.236 10.2416 33.8655 10.2416 33.4089V10.2548C10.2416 9.79824 9.87111 9.42822 9.4145 9.42822Z" fill="#444444"/>
<path d="M13.549 13.5627C13.0924 13.5627 12.7219 13.9328 12.7219 14.3898V28.4472C12.7219 28.9038 13.0924 29.2743 13.549 29.2743C14.0056 29.2743 14.3761 28.9038 14.3761 28.4472V14.3898C14.3761 13.9328 14.0056 13.5627 13.549 13.5627Z" fill="#444444"/>
<path d="M26.0337 11.5608C25.5771 11.5608 25.207 11.9308 25.207 12.3879V30.9924C25.207 31.449 25.5771 31.819 26.0337 31.819C26.4903 31.819 26.8608 31.449 26.8608 30.9924V12.3879C26.8608 11.9308 26.4903 11.5608 26.0337 11.5608Z" fill="#444444"/>
<path d="M34.2224 12.7356C33.7658 12.7356 33.3953 13.1061 33.3953 13.5627V30.1009C33.3953 30.558 33.7658 30.928 34.2224 30.928C34.679 30.928 35.049 30.558 35.049 30.1009V13.5627C35.049 13.1061 34.679 12.7356 34.2224 12.7356Z" fill="#444444"/>
<path d="M38.3569 16.8701C37.9003 16.8701 37.5298 17.2406 37.5298 17.6972V25.9663C37.5298 26.4229 37.9003 26.7934 38.3569 26.7934C38.8135 26.7934 39.1835 26.4229 39.1835 25.9663V17.6972C39.1835 17.2406 38.8135 16.8701 38.3569 16.8701Z" fill="#444444"/>
<path d="M30.0878 6.12024C29.6308 6.12024 29.2607 6.49073 29.2607 6.94734V36.7163C29.2607 37.1734 29.6308 37.5434 30.0878 37.5434C30.5444 37.5434 30.9145 37.1734 30.9145 36.7163V6.94734C30.9145 6.49073 30.5444 6.12024 30.0878 6.12024Z" fill="#444444"/>
<path d="M17.6836 19.3511C17.227 19.3511 16.8569 19.7216 16.8569 20.1782V23.4856C16.8569 23.9427 17.227 24.3127 17.6836 24.3127C18.1402 24.3127 18.5107 23.9427 18.5107 23.4856V20.1782C18.5107 19.7216 18.1402 19.3511 17.6836 19.3511Z" fill="#444444"/>
<path d="M42.4914 19.0742C42.0348 19.0742 41.6643 19.4442 41.6643 19.9008V23.479C41.6643 23.9356 42.0348 24.3061 42.4914 24.3061C42.948 24.3061 43.3185 23.9356 43.3185 23.479V19.9008C43.3185 19.4442 42.948 19.0742 42.4914 19.0742Z" fill="#444444"/>
<path d="M21.7407 17.4976C21.2836 17.4976 20.9136 17.8676 20.9136 18.3242V25.0555C20.9136 25.5121 21.2836 25.8826 21.7407 25.8826C22.1973 25.8826 22.5673 25.5121 22.5673 25.0555V18.3242C22.5673 17.8676 22.1973 17.4976 21.7407 17.4976Z" fill="#444444"/>
</g>
<defs>
<clipPath id="clip0">
<rect x="0.318359" y="0.307739" width="43" height="43" fill="white"/>
</clipPath>
</defs>
</svg>
