<svg width="74" height="74" viewBox="0 0 74 74" fill="none" xmlns="http://www.w3.org/2000/svg">
<path fill-rule="evenodd" clip-rule="evenodd" d="M69.4451 43.7785C68.9508 51.399 64.9115 58.6491 59.072 63.5792C53.5713 68.2231 46.0657 69.9004 38.8668 69.5947C32.6441 69.3305 28.0726 64.3335 22.2917 62.0174C15.9674 59.4835 6.56381 61.481 3.47671 55.4156C0.365795 49.3035 8.45986 42.9901 9.13555 36.1688C9.84384 29.0184 3.30343 21.0702 7.45976 15.2056C11.5351 9.45521 20.6291 11.83 27.5057 10.2485C34.7636 8.5792 41.8741 3.00478 48.8202 5.69311C55.8169 8.40099 58.1043 16.8819 61.6732 23.4722C65.2118 30.0065 69.9257 36.3675 69.4451 43.7785Z" fill="#F5F5F5"/>
</svg>
