<svg width="63" height="74" viewBox="0 0 63 74" fill="none" xmlns="http://www.w3.org/2000/svg">
<path fill-rule="evenodd" clip-rule="evenodd" d="M29.0185 0.373696C35.0549 -0.574147 39.1334 6.63282 44.4831 9.56866C49.9585 12.5735 57.4505 12.7114 60.9219 17.8819C64.399 23.0607 62.4943 29.9612 62.3535 36.1852C62.2156 42.2788 63.9419 49.2648 60.104 54.0194C56.2365 58.8106 48.2179 56.9525 42.9702 60.1981C37.4545 63.6094 35.4653 74.0441 29.0185 73.245C22.1713 72.3962 22.4984 61.0365 16.9413 56.9717C12.3168 53.5891 3.36163 57.4913 0.623803 52.4756C-2.14598 47.4013 5.18101 41.9432 5.595 36.1852C5.96568 31.0298 0.650659 25.8584 2.87356 21.1856C5.06191 16.5855 12.1434 17.2003 16.1397 14.0192C21.1224 10.0529 22.7125 1.36387 29.0185 0.373696Z" fill="#F5F5F5"/>
</svg>
