<svg width="34" height="35" viewBox="0 0 34 35" fill="none" xmlns="http://www.w3.org/2000/svg">
<path d="M17 34.3119C7.62563 34.3119 0 26.6855 0 17.3119C0 7.93825 7.62563 0.31189 17 0.31189C26.3744 0.31189 34 7.93825 34 17.3119C34 26.6855 26.3744 34.3119 17 34.3119ZM17 1.72853C8.4073 1.72853 1.41664 8.71919 1.41664 17.3119C1.41664 25.9046 8.4073 32.8952 17 32.8952C25.5927 32.8952 32.5834 25.9046 32.5834 17.3119C32.5834 8.71919 25.5927 1.72853 17 1.72853Z" fill="#444444"/>
<path d="M23.7582 17.9075L13.8416 24.2825C13.6244 24.4243 13.3435 24.4319 13.1194 24.3088C12.8911 24.1843 12.75 23.9463 12.75 23.6869V10.9369C12.75 10.6775 12.8911 10.4395 13.1194 10.315C13.2245 10.2576 13.3421 10.2285 13.4584 10.2285C13.5912 10.2285 13.7254 10.2659 13.8416 10.3413L23.7582 16.7163C23.9602 16.8463 24.0834 17.0712 24.0834 17.3119C24.0834 17.5526 23.9602 17.7774 23.7582 17.9075ZM14.1666 12.2346V22.3892L22.0649 17.3119L14.1666 12.2346Z" fill="#444444"/>
</svg>
